<?xml version="1.0" encoding="utf-8"?>
<!-- Generator: Adobe Illustrator 16.0.0, SVG Export Plug-In . SVG Version: 6.00 Build 0)  -->
<!DOCTYPE svg PUBLIC "-//W3C//DTD SVG 1.1//EN" "http://www.w3.org/Graphics/SVG/1.1/DTD/svg11.dtd">
<svg version="1.1" id="Layer_1" xmlns="http://www.w3.org/2000/svg" xmlns:xlink="http://www.w3.org/1999/xlink" x="0px" y="0px"
	 width="955.886px" height="142.493px" viewBox="4.114 387.585 955.886 142.493"
	 enable-background="new 4.114 387.585 955.886 142.493" xml:space="preserve">
<g enable-background="new    ">
	<path fill="#FFFFFF" d="M74.557,451.857l-12.756,14.735H35.189v33.21H23.752v-33.319l-6.598-5.719l6.598-5.828v-33.759h38.048
		l12.756,14.735V451.857z M63.12,447.02v-6.049l-6.708-8.137H35.189v22.433h21.113L63.12,447.02z"/>
	<path fill="#FFFFFF" d="M143.725,499.803H96.22v-33.319l-6.598-5.828l6.598-5.719v-33.759h47.505v11.436h-36.069v22.323h27.821
		v11.437h-27.821v21.883h35.959v11.547H143.725z"/>
	<path fill="#FFFFFF" d="M224.88,460.875l-6.598,5.718v33.32h-11.437l-32.77-58.172v58.172h-11.437v-33.32l-6.598-5.718l6.598-5.828
		v-33.76h12.096l32.22,56.633v-56.633h11.437v33.76L224.88,460.875z"/>
	<path fill="#FFFFFF" d="M305.814,460.875l-6.598,5.718v33.32H287.78l-32.77-58.172v58.172h-11.437v-33.32l-6.598-5.718l6.598-5.828
		v-33.76h12.096l32.22,56.633v-56.633h11.437v33.76L305.814,460.875z"/>
	<path fill="#FFFFFF" d="M383.12,421.287l-29.471,44.316v34.31h-11.437v-34.31l-29.361-44.316h13.086l22.213,32.44l21.993-32.44
		H383.12z"/>
	<path fill="#FFFFFF" d="M444.701,432.724h-35.189v22.323h27.932v11.437h-27.932v33.319h-11.437v-33.319l-6.598-5.719l6.598-5.828
		v-33.759h46.626V432.724z"/>
	<path fill="#FFFFFF" d="M526.516,499.913h-11.877l-7.478-19.685h-32.109l-7.368,19.685h-11.986l12.427-33.21l-5.499-5.828
		l9.567-4.948l12.976-34.64h11.877L526.516,499.913z M502.873,468.792l-11.767-32.22l-11.767,32.22H502.873z"/>
	<path fill="#FFFFFF" d="M596.344,499.913h-12.426l-16.386-33.21h-14.075v33.21h-11.437v-33.21l-6.598-5.828l6.598-5.719v-33.869
		h37.938l12.756,14.735v15.726l-12.756,14.735L596.344,499.913z M581.278,446.909v-6.048l-6.708-8.027h-21.003v22.433h21.003
		L581.278,446.909z"/>
	<path fill="#FFFFFF" d="M662.873,432.724H640v22.433l6.598,5.719L640,466.593v33.32h-11.437v-33.32l-6.598-5.718l6.598-5.719
		v-22.433h-22.982v-11.437h57.292V432.724L662.873,432.724z"/>
	<path fill="#FFFFFF" d="M742.818,460.765l-6.599,5.828v33.32h-11.437v-33.32h-32.659v33.32h-11.437v-33.32l-6.598-5.828
		l6.598-5.718v-33.76h11.437v33.76h32.659v-33.76h11.437v33.76L742.818,460.765z"/>
	<path fill="#FFFFFF" d="M782.625,460.875l-6.598,5.828v33.21h-11.437v-33.21l-6.598-5.828l6.598-5.719v-33.869h11.437v33.869
		L782.625,460.875z"/>
	<path fill="#FFFFFF" d="M865.319,460.875l-6.598,5.718v33.32h-11.437l-32.77-58.172v58.172h-11.437v-33.32l-6.598-5.718
		l6.598-5.828v-33.76h12.096l32.11,56.633v-56.633h11.437v33.76L865.319,460.875z"/>
	<path fill="#FFFFFF" d="M942.405,486.827l-14.735,13.086h-27.932l-14.515-13.086v-20.234l-6.488-5.718l6.488-5.828v-20.674
		l14.735-13.086h27.711l14.735,13.086l0.22,16.385h-11.436v-10.446l-8.138-7.588h-18.034l-8.138,7.038v41.457l8.138,7.037h18.034
		l8.138-7.587v-8.357h-15.176v-11.437h26.392V486.827z"/>
</g>
</svg>
